<svg width="106" height="159" viewBox="0 0 106 159" fill="none" xmlns="http://www.w3.org/2000/svg">
<path d="M2.61616 143.213C4.85263 124.955 7.09672 106.696 9.33319 88.4299C11.7038 69.1024 13.3174 49.1659 13.3351 29.6887C13.3369 26.2965 14.6606 22.0811 15.9761 18.9569C17.2916 15.8326 19.6015 12.9686 22.7716 11.7456C25.9418 10.5225 29.9867 11.3263 31.9078 14.1257C33.228 16.0563 33.3826 18.5281 33.4927 20.8663C33.9332 30.2266 34.3732 39.5869 34.8211 48.9472C35.6611 46.6688 37.659 44.8513 39.5303 43.301C41.4165 41.7432 43.4363 40.1632 45.8415 39.7117C49.6869 38.9937 53.449 41.3413 56.2607 44.0669C57.7832 42.5387 59.5208 40.6171 61.3474 39.475C63.1814 38.3328 65.3569 37.614 67.4945 37.8898C69.1125 38.0984 70.6263 38.8786 71.8579 39.9407C73.9785 30.1513 76.5375 20.0058 81.5004 11.309C83.2241 8.28146 85.3634 5.35804 88.3557 3.57817C91.348 1.7983 95.3637 1.39218 98.2576 3.32361C100.825 5.0322 102.063 8.23204 102.195 11.3125C102.327 14.393 101.509 17.4211 100.742 20.412C96.2796 37.8753 93.4126 55.7477 92.1858 73.7248C97.366 75.2121 101.453 79.7495 103.225 84.8425C104.996 89.9354 104.6 95.6284 102.779 100.705C100.957 105.781 97.7855 110.285 94.124 114.246C90.47 118.193 86.2072 121.806 84.0446 126.734C80.7672 134.214 83.5462 142.967 83.2376 151.124C75.1886 156.316 67.468 158.034 56.2823 157.441C41.6674 156.662 27.3719 155.266 13.3601 151.043C11.0594 150.351 8.74401 149.585 6.75543 148.241C4.78171 146.881 2.32541 145.596 2.61616 143.213Z" fill="white"/>
<path d="M78.9261 93.5354C73.8113 94.4828 68.4887 95.4301 63.4791 94.032C58.4695 92.6339 53.9144 88.1481 54.266 82.9599C54.4979 79.5307 56.8227 76.496 59.7334 74.6716C62.6441 72.8471 66.0887 72.0621 69.4886 71.5889C76.5629 70.598 83.9856 70.8246 90.5309 73.6858C97.0762 76.547 102.588 82.3619 103.772 89.3993C104.697 94.9074 102.95 100.6 100.06 105.378C97.1697 110.157 93.1966 114.171 89.2679 118.14C81.3288 126.145 82.9178 139.113 82.9564 150.396C82.9689 154.716 76.8372 155.759 72.5466 156.202C53.6548 158.144 34.4082 156.657 16.0396 151.83C10.9409 150.491 5.44165 148.529 2.8387 143.947C8.09798 108.314 11.9995 71.655 13.5476 35.6631C13.8483 28.6413 14.2532 21.1223 18.5168 15.5353C21.1017 12.1445 26.0538 9.77926 29.6081 12.1267C31.9454 13.6645 32.8049 16.6414 33.3007 19.3955C34.9438 28.504 34.6553 40.8107 34.1754 50.0592" stroke="#2D2D2D" stroke-width="3.71136" stroke-miterlimit="10" stroke-linecap="round" stroke-linejoin="round"/>
<path d="M67.3089 94.674C58.542 95.9312 48.909 106.904 48.4731 117.095" stroke="#2D2D2D" stroke-width="3.71136" stroke-miterlimit="10" stroke-linecap="round" stroke-linejoin="round"/>
<path d="M69.5702 71.1507C70.2341 50.9539 72.1084 30.1342 81.5596 12.2727C83.2536 9.07441 85.2667 5.90597 88.2814 3.90344C91.2961 1.9009 95.5345 1.36871 98.4654 3.47831C100.728 5.10508 101.818 7.98567 101.958 10.7693C102.098 13.5528 101.413 16.3063 100.773 19.0153C96.5104 37.0576 93.8063 55.4645 92.7128 73.9688" stroke="#2D2D2D" stroke-width="3.71136" stroke-miterlimit="10" stroke-linecap="round" stroke-linejoin="round"/>
<path d="M72.5489 39.2343C67.5994 36.5521 61.0958 38.7458 57.3673 42.9673C53.6389 47.1815 52.1663 52.9184 51.3691 58.4851C50.6315 63.6509 50.3689 68.8838 50.5889 74.0946C50.7135 77.0267 51.5057 80.6122 54.3333 81.4005" stroke="#2D2D2D" stroke-width="3.71136" stroke-miterlimit="10" stroke-linecap="round" stroke-linejoin="round"/>
<path d="M55.9196 44.1253C53.3459 40.3236 47.95 39.0588 43.6069 40.5485C39.2638 42.0382 35.9738 45.8072 34.1753 50.0372C32.3767 54.2672 31.8918 58.9284 31.7558 63.523C31.6424 67.2936 31.7589 71.1683 33.2119 74.6504C34.6649 78.1324 37.714 81.1625 41.4548 81.6247C45.1956 82.0868 50.5275 77.8736 50.5889 74.1029" stroke="#2D2D2D" stroke-width="3.71136" stroke-miterlimit="10" stroke-linecap="round" stroke-linejoin="round"/>
</svg>
