<svg width="390" height="367" viewBox="0 0 390 367" fill="none" xmlns="http://www.w3.org/2000/svg">
<path d="M106.008 91.4905C114.85 40.9611 162.979 7.16627 213.508 16.0075C264.038 24.8488 297.833 72.9782 288.991 123.508C280.15 174.037 232.021 207.832 181.491 198.991C130.962 190.149 97.1672 142.02 106.008 91.4905ZM256.957 117.902C262.702 85.0653 240.74 53.788 207.903 48.0424C175.066 42.2968 143.789 64.2588 138.043 97.0957C132.298 129.933 154.26 161.21 187.097 166.956C219.934 172.701 251.211 150.739 256.957 117.902Z" fill="#384B7F"/>
<path d="M290.824 107.942C290.824 159.239 249.24 200.823 197.943 200.823C146.646 200.823 105.062 159.239 105.062 107.942C105.062 56.6445 146.646 15.0601 197.943 15.0601C249.24 15.0601 290.824 56.6445 290.824 107.942ZM138.274 107.942C138.274 140.896 164.989 167.61 197.943 167.61C230.897 167.61 257.612 140.896 257.612 107.942C257.612 74.9874 230.897 48.2728 197.943 48.2728C164.989 48.2728 138.274 74.9874 138.274 107.942Z" fill="url(#paint0_linear_223_9929)"/>
<path d="M254.008 243.49C262.85 192.961 310.979 159.166 361.508 168.008C412.038 176.849 445.833 224.978 436.991 275.508C428.15 326.037 380.021 359.832 329.491 350.991C278.962 342.149 245.167 294.02 254.008 243.49ZM404.957 269.902C410.702 237.065 388.74 205.788 355.903 200.042C323.066 194.297 291.789 216.259 286.043 249.096C280.298 281.933 302.26 313.21 335.097 318.956C367.934 324.701 399.211 302.739 404.957 269.902Z" fill="#384B7F"/>
<path d="M408.508 216.312C416.031 211.066 417.967 200.581 411.467 194.111C405.746 188.417 399.29 183.476 392.252 179.428C380.399 172.61 367.186 168.494 353.558 167.373C339.93 166.252 326.222 168.154 313.414 172.943C305.809 175.786 298.633 179.606 292.058 184.288C284.588 189.609 284.785 200.269 291.349 206.674C297.913 213.079 308.365 212.694 316.326 208.142C319.11 206.55 322.025 205.181 325.046 204.052C333.274 200.975 342.08 199.753 350.835 200.474C359.59 201.194 368.078 203.838 375.693 208.218C378.488 209.826 381.14 211.653 383.627 213.678C390.738 219.47 400.985 221.558 408.508 216.312Z" fill="url(#paint1_linear_223_9929)"/>
<path d="M-41.9915 242.49C-33.1503 191.961 14.9791 158.166 65.5085 167.008C116.038 175.849 149.833 223.978 140.991 274.508C132.15 325.037 84.0208 358.832 33.4914 349.991C-17.0379 341.149 -50.8328 293.02 -41.9915 242.49ZM108.957 268.902C114.702 236.065 92.7402 204.788 59.9032 199.042C27.0663 193.297 -4.21107 215.259 -9.95664 248.096C-15.7022 280.933 6.25969 312.21 39.0967 317.956C71.9336 323.701 103.211 301.739 108.957 268.902Z" fill="#384B7F"/>
<path d="M121.51 232.559C130.115 229.386 134.641 219.732 129.989 211.828C123.086 200.1 113.654 189.972 102.302 182.225C86.3528 171.339 67.407 165.695 48.1006 166.078C28.7942 166.461 10.0872 172.852 -5.41801 184.362C-20.9232 195.871 -32.4557 211.928 -38.411 230.296C-44.3664 248.665 -44.4485 268.434 -38.6459 286.852C-32.8434 305.269 -21.4448 321.421 -6.0357 333.059C9.37337 344.697 28.0266 351.243 47.3292 351.786C61.067 352.173 74.6475 349.505 87.1182 344.059C95.523 340.388 97.5231 329.915 92.416 322.297C87.309 314.679 77.0019 312.907 68.274 315.725C61.853 317.798 55.0886 318.779 48.2638 318.587C35.8635 318.238 23.8803 314.032 13.9812 306.556C4.08218 299.079 -3.24052 288.703 -6.96817 276.871C-10.6958 265.04 -10.6431 252.34 -6.81725 240.539C-2.99143 228.739 4.41722 218.424 14.3781 211.03C24.3389 203.636 36.3566 199.531 48.7594 199.284C61.1622 199.038 73.3333 202.664 83.5796 209.657C89.2189 213.506 94.1208 218.27 98.1041 223.716C103.519 231.118 112.905 235.731 121.51 232.559Z" fill="url(#paint2_linear_223_9929)"/>
<defs>
<linearGradient id="paint0_linear_223_9929" x1="170.136" y1="-19.5453" x2="250.272" y2="340.091" gradientUnits="userSpaceOnUse">
<stop stop-color="#89C2E4"/>
<stop offset="0.333333" stop-color="#629CCE" stop-opacity="0.8249"/>
<stop offset="0.666667" stop-color="#738CDC" stop-opacity="0.258591"/>
<stop offset="1" stop-color="#738CDC" stop-opacity="0"/>
</linearGradient>
<linearGradient id="paint1_linear_223_9929" x1="318.136" y1="132.455" x2="398.272" y2="492.091" gradientUnits="userSpaceOnUse">
<stop offset="0.141716" stop-color="#89C2E4"/>
<stop offset="0.328177" stop-color="#629CCE" stop-opacity="0.8249"/>
<stop offset="0.753249" stop-color="#738CDC" stop-opacity="0.258591"/>
<stop offset="1" stop-color="#738CDC" stop-opacity="0"/>
</linearGradient>
<linearGradient id="paint2_linear_223_9929" x1="22.1361" y1="131.455" x2="102.272" y2="491.091" gradientUnits="userSpaceOnUse">
<stop offset="0.141716" stop-color="#89C2E4"/>
<stop offset="0.328177" stop-color="#629CCE" stop-opacity="0.8249"/>
<stop offset="0.753249" stop-color="#738CDC" stop-opacity="0.258591"/>
<stop offset="1" stop-color="#738CDC" stop-opacity="0"/>
</linearGradient>
</defs>
</svg>
