<svg width="358" height="383" viewBox="0 0 358 383" fill="none" xmlns="http://www.w3.org/2000/svg">
<path d="M20.8727 35.7709H22.832L27.507 44.4808L32.1627 35.7709H34.1413V49.0977H32.1627V39.6118L27.507 48.3217L22.832 39.6118V49.0977H20.8727V35.7709ZM41.1434 47.7398C41.6995 47.7398 42.2556 47.6363 42.8117 47.4294C43.3678 47.2095 43.8075 46.9315 44.1308 46.5952L45.2559 47.7786C44.8162 48.2441 44.2084 48.6192 43.4324 48.9037C42.6694 49.1882 41.9258 49.3304 41.2016 49.3304C40.2705 49.3304 39.4105 49.1041 38.6216 48.6515C37.8327 48.1989 37.199 47.5716 36.7205 46.7698C36.255 45.968 36.0222 45.0628 36.0222 44.054C36.0222 43.0712 36.242 42.1853 36.6817 41.3965C37.1344 40.5946 37.7422 39.9674 38.5052 39.5148C39.2811 39.0622 40.1282 38.8358 41.0464 38.8358C42.0551 38.8358 42.9216 39.0751 43.6458 39.5536C44.3829 40.0321 44.939 40.711 45.3141 41.5904C45.702 42.4698 45.896 43.5044 45.896 44.6942H37.9039C38.0202 45.5865 38.3694 46.3172 38.9514 46.8862C39.5463 47.4552 40.2769 47.7398 41.1434 47.7398ZM41.1046 40.4265C40.3028 40.4265 39.6045 40.6852 39.0096 41.2025C38.4276 41.7198 38.0655 42.4116 37.9232 43.2781H44.0338C43.9303 42.4375 43.6264 41.7521 43.122 41.2219C42.6177 40.6916 41.9452 40.4265 41.1046 40.4265ZM50.3792 49.3304C49.6291 49.3304 48.8791 49.2011 48.129 48.9425C47.3789 48.6838 46.7 48.3153 46.0921 47.8368L46.9845 46.5177C47.5406 46.9315 48.1096 47.2483 48.6915 47.4682C49.2735 47.6751 49.8425 47.7786 50.3986 47.7786C50.9935 47.7786 51.4655 47.6557 51.8147 47.41C52.1768 47.1643 52.3579 46.8345 52.3579 46.4207C52.3579 45.9939 52.1703 45.6771 51.7953 45.4701C51.4203 45.2503 50.8318 45.0304 50.03 44.8106C48.8015 44.4743 47.9156 44.0993 47.3724 43.6855C46.8422 43.2587 46.5771 42.6574 46.5771 41.8814C46.5771 40.9632 46.9133 40.2261 47.5858 39.67C48.2712 39.1139 49.1506 38.8358 50.224 38.8358C50.8577 38.8358 51.4914 38.9393 52.1251 39.1462C52.7717 39.3531 53.373 39.6377 53.9291 39.9998L53.1144 41.3577C52.1057 40.711 51.1422 40.3877 50.224 40.3877C49.6938 40.3877 49.2541 40.5041 48.9049 40.7369C48.5687 40.9568 48.4006 41.2671 48.4006 41.668C48.4006 41.9267 48.4782 42.1336 48.6333 42.2888C48.7885 42.444 49.0148 42.5862 49.3123 42.7155C49.6227 42.8319 50.1076 42.9936 50.7672 43.2005C51.4914 43.4074 52.0798 43.6143 52.5324 43.8213C52.998 44.0282 53.386 44.3256 53.6964 44.7136C54.0197 45.1016 54.1813 45.6059 54.1813 46.2267C54.1813 47.1578 53.8257 47.9079 53.1144 48.4769C52.4031 49.0459 51.4914 49.3304 50.3792 49.3304ZM58.5011 49.3304C57.751 49.3304 57.001 49.2011 56.2509 48.9425C55.5008 48.6838 54.8219 48.3153 54.214 47.8368L55.1064 46.5177C55.6625 46.9315 56.2315 47.2483 56.8134 47.4682C57.3954 47.6751 57.9644 47.7786 58.5205 47.7786C59.1154 47.7786 59.5874 47.6557 59.9366 47.41C60.2987 47.1643 60.4798 46.8345 60.4798 46.4207C60.4798 45.9939 60.2922 45.6771 59.9172 45.4701C59.5422 45.2503 58.9537 45.0304 58.1519 44.8106C56.9234 44.4743 56.0375 44.0993 55.4943 43.6855C54.9641 43.2587 54.699 42.6574 54.699 41.8814C54.699 40.9632 55.0353 40.2261 55.7077 39.67C56.3931 39.1139 57.2725 38.8358 58.3459 38.8358C58.9796 38.8358 59.6133 38.9393 60.247 39.1462C60.8936 39.3531 61.495 39.6377 62.051 39.9998L61.2363 41.3577C60.2276 40.711 59.2641 40.3877 58.3459 40.3877C57.8157 40.3877 57.376 40.5041 57.0268 40.7369C56.6906 40.9568 56.5225 41.2671 56.5225 41.668C56.5225 41.9267 56.6001 42.1336 56.7553 42.2888C56.9104 42.444 57.1368 42.5862 57.4342 42.7155C57.7446 42.8319 58.2295 42.9936 58.8891 43.2005C59.6133 43.4074 60.2017 43.6143 60.6543 43.8213C61.1199 44.0282 61.5079 44.3256 61.8183 44.7136C62.1416 45.1016 62.3032 45.6059 62.3032 46.2267C62.3032 47.1578 61.9476 47.9079 61.2363 48.4769C60.525 49.0459 59.6133 49.3304 58.5011 49.3304ZM67.9799 38.8358C69.299 38.8358 70.3271 39.2174 71.0642 39.9804C71.8014 40.7434 72.1699 41.7586 72.1699 43.0259V49.0977H70.2883V47.7398C69.9262 48.2441 69.4412 48.6386 68.8334 48.9231C68.2256 49.1946 67.5984 49.3304 66.9517 49.3304C65.8784 49.3304 64.9925 49.0395 64.2941 48.4575C63.5958 47.8756 63.2466 47.0996 63.2466 46.1297C63.2466 45.4831 63.4212 44.9076 63.7704 44.4032C64.1325 43.8859 64.6175 43.4915 65.2253 43.2199C65.846 42.9354 66.525 42.7931 67.2621 42.7931C68.2191 42.7931 69.2278 42.9742 70.2883 43.3363V43.0259C70.2883 42.2888 70.0878 41.6745 69.6869 41.1831C69.286 40.6787 68.6265 40.4265 67.7083 40.4265C66.9194 40.4265 65.9818 40.7046 64.8955 41.2607L64.1778 39.8446C65.5227 39.1721 66.7901 38.8358 67.9799 38.8358ZM67.3397 47.8174C68.0122 47.8174 68.6329 47.6557 69.202 47.3324C69.771 46.9962 70.1331 46.5371 70.2883 45.9551V44.6166C69.4347 44.358 68.523 44.2286 67.5531 44.2286C66.8677 44.2286 66.2857 44.4032 65.8072 44.7524C65.3287 45.1016 65.0895 45.5413 65.0895 46.0715C65.0895 46.6017 65.2964 47.0285 65.7102 47.3518C66.137 47.6622 66.6802 47.8174 67.3397 47.8174ZM83.5779 39.0686V48.0307C83.5779 48.8843 83.3581 49.6408 82.9184 50.3004C82.4916 50.9728 81.8903 51.4966 81.1143 51.8716C80.3513 52.2467 79.4784 52.4342 78.4955 52.4342C77.6808 52.4342 76.8984 52.3113 76.1483 52.0656C75.4112 51.8199 74.7969 51.4966 74.3054 51.0957L75.062 49.6602C75.4241 50.0094 75.8832 50.281 76.4393 50.4749C77.0083 50.6689 77.6032 50.7659 78.2239 50.7659C79.2973 50.7659 80.1379 50.5202 80.7457 50.0288C81.3536 49.5374 81.6575 48.8584 81.6575 47.9919V46.5371C81.2566 47.119 80.7522 47.5716 80.1444 47.8949C79.5366 48.2053 78.8641 48.3605 78.1269 48.3605C77.2475 48.3605 76.4587 48.1601 75.7603 47.7592C75.0749 47.3453 74.5318 46.7763 74.1309 46.0521C73.7429 45.3279 73.5489 44.5067 73.5489 43.5885C73.5489 42.6703 73.7429 41.8491 74.1309 41.1249C74.5318 40.4007 75.0749 39.8381 75.7603 39.4372C76.4587 39.0363 77.2475 38.8358 78.1269 38.8358C78.8641 38.8358 79.5366 38.9975 80.1444 39.3208C80.7651 39.6441 81.2695 40.0903 81.6575 40.6593V39.0686H83.5779ZM78.5925 46.6922C79.4978 46.6922 80.2349 46.4077 80.8039 45.8387C81.373 45.2568 81.6575 44.5067 81.6575 43.5885C81.6575 42.6832 81.373 41.9461 80.8039 41.3771C80.2349 40.7951 79.4978 40.5041 78.5925 40.5041C77.7131 40.5041 76.9824 40.7951 76.4005 41.3771C75.8315 41.9461 75.5469 42.6832 75.5469 43.5885C75.5469 44.4937 75.8315 45.2374 76.4005 45.8193C76.9824 46.4013 77.7131 46.6922 78.5925 46.6922ZM90.2398 47.7398C90.7959 47.7398 91.352 47.6363 91.9081 47.4294C92.4642 47.2095 92.9039 46.9315 93.2272 46.5952L94.3523 47.7786C93.9126 48.2441 93.3048 48.6192 92.5288 48.9037C91.7658 49.1882 91.0222 49.3304 90.298 49.3304C89.3669 49.3304 88.5069 49.1041 87.718 48.6515C86.9291 48.1989 86.2954 47.5716 85.8169 46.7698C85.3514 45.968 85.1186 45.0628 85.1186 44.054C85.1186 43.0712 85.3384 42.1853 85.7781 41.3965C86.2308 40.5946 86.8386 39.9674 87.6016 39.5148C88.3775 39.0622 89.2246 38.8358 90.1428 38.8358C91.1515 38.8358 92.018 39.0751 92.7422 39.5536C93.4793 40.0321 94.0354 40.711 94.4105 41.5904C94.7984 42.4698 94.9924 43.5044 94.9924 44.6942H87.0002C87.1166 45.5865 87.4658 46.3172 88.0478 46.8862C88.6427 47.4552 89.3733 47.7398 90.2398 47.7398ZM90.201 40.4265C89.3992 40.4265 88.7008 40.6852 88.106 41.2025C87.524 41.7198 87.1619 42.4116 87.0196 43.2781H93.1302C93.0267 42.4375 92.7228 41.7521 92.2184 41.2219C91.7141 40.6916 91.0416 40.4265 90.201 40.4265ZM106.742 49.311C104.57 49.311 102.74 48.5998 101.252 47.1772L102.436 45.7223C103.742 46.9638 105.203 47.5846 106.82 47.5846C107.699 47.5846 108.385 47.3906 108.876 47.0026C109.367 46.6017 109.613 46.1168 109.613 45.5477C109.613 44.9528 109.354 44.5002 108.837 44.1898C108.333 43.8665 107.479 43.5691 106.277 43.2975C105.268 43.0647 104.44 42.7996 103.794 42.5022C103.16 42.2047 102.662 41.8103 102.3 41.3189C101.938 40.8274 101.757 40.2002 101.757 39.4372C101.757 38.7001 101.951 38.034 102.339 37.4392C102.74 36.8443 103.289 36.3787 103.988 36.0425C104.699 35.6933 105.494 35.5187 106.374 35.5187C107.356 35.5187 108.242 35.6804 109.031 36.0037C109.82 36.327 110.557 36.7925 111.243 37.4004L110.117 38.8746C109.548 38.3574 108.934 37.9565 108.275 37.6719C107.628 37.3874 106.968 37.2452 106.296 37.2452C105.817 37.2452 105.384 37.3422 104.996 37.5361C104.608 37.7172 104.304 37.9629 104.085 38.2733C103.865 38.5837 103.755 38.9134 103.755 39.2626C103.755 39.6635 103.878 39.9933 104.123 40.2519C104.369 40.5106 104.718 40.7304 105.171 40.9115C105.636 41.0796 106.277 41.2607 107.091 41.4546C108.579 41.8038 109.697 42.2629 110.447 42.8319C111.21 43.401 111.592 44.2416 111.592 45.3537C111.592 46.1168 111.404 46.7957 111.029 47.3906C110.654 47.9855 110.098 48.4575 109.361 48.8067C108.637 49.1429 107.764 49.311 106.742 49.311ZM122.089 39.0686V49.0977H120.168V47.6234C119.871 48.1277 119.431 48.5416 118.849 48.8649C118.28 49.1753 117.653 49.3304 116.967 49.3304C116.243 49.3304 115.597 49.1688 115.028 48.8455C114.459 48.5222 114.012 48.0695 113.689 47.4876C113.379 46.8927 113.224 46.2137 113.224 45.4507V39.0686H115.105V45.121C115.105 45.871 115.312 46.4853 115.726 46.9638C116.153 47.4294 116.709 47.6622 117.394 47.6622C117.899 47.6622 118.364 47.5587 118.791 47.3518C119.218 47.1319 119.554 46.841 119.8 46.4789C120.045 46.1168 120.168 45.7223 120.168 45.2955V39.0686H122.089ZM133.622 39.0686V48.0307C133.622 48.8843 133.402 49.6408 132.962 50.3004C132.535 50.9728 131.934 51.4966 131.158 51.8716C130.395 52.2467 129.522 52.4342 128.539 52.4342C127.724 52.4342 126.942 52.3113 126.192 52.0656C125.455 51.8199 124.84 51.4966 124.349 51.0957L125.106 49.6602C125.468 50.0094 125.927 50.281 126.483 50.4749C127.052 50.6689 127.647 50.7659 128.268 50.7659C129.341 50.7659 130.182 50.5202 130.789 50.0288C131.397 49.5374 131.701 48.8584 131.701 47.9919V46.5371C131.3 47.119 130.796 47.5716 130.188 47.8949C129.58 48.2053 128.908 48.3605 128.171 48.3605C127.291 48.3605 126.502 48.1601 125.804 47.7592C125.118 47.3453 124.575 46.7763 124.174 46.0521C123.786 45.3279 123.592 44.5067 123.592 43.5885C123.592 42.6703 123.786 41.8491 124.174 41.1249C124.575 40.4007 125.118 39.8381 125.804 39.4372C126.502 39.0363 127.291 38.8358 128.171 38.8358C128.908 38.8358 129.58 38.9975 130.188 39.3208C130.809 39.6441 131.313 40.0903 131.701 40.6593V39.0686H133.622ZM128.636 46.6922C129.541 46.6922 130.278 46.4077 130.848 45.8387C131.417 45.2568 131.701 44.5067 131.701 43.5885C131.701 42.6832 131.417 41.9461 130.848 41.3771C130.278 40.7951 129.541 40.5041 128.636 40.5041C127.757 40.5041 127.026 40.7951 126.444 41.3771C125.875 41.9461 125.591 42.6832 125.591 43.5885C125.591 44.4937 125.875 45.2374 126.444 45.8193C127.026 46.4013 127.757 46.6922 128.636 46.6922ZM145.191 39.0686V48.0307C145.191 48.8843 144.971 49.6408 144.532 50.3004C144.105 50.9728 143.504 51.4966 142.728 51.8716C141.965 52.2467 141.092 52.4342 140.109 52.4342C139.294 52.4342 138.512 52.3113 137.762 52.0656C137.024 51.8199 136.41 51.4966 135.919 51.0957L136.675 49.6602C137.037 50.0094 137.496 50.281 138.053 50.4749C138.622 50.6689 139.216 50.7659 139.837 50.7659C140.911 50.7659 141.751 50.5202 142.359 50.0288C142.967 49.5374 143.271 48.8584 143.271 47.9919V46.5371C142.87 47.119 142.365 47.5716 141.758 47.8949C141.15 48.2053 140.477 48.3605 139.74 48.3605C138.861 48.3605 138.072 48.1601 137.374 47.7592C136.688 47.3453 136.145 46.7763 135.744 46.0521C135.356 45.3279 135.162 44.5067 135.162 43.5885C135.162 42.6703 135.356 41.8491 135.744 41.1249C136.145 40.4007 136.688 39.8381 137.374 39.4372C138.072 39.0363 138.861 38.8358 139.74 38.8358C140.477 38.8358 141.15 38.9975 141.758 39.3208C142.378 39.6441 142.883 40.0903 143.271 40.6593V39.0686H145.191ZM140.206 46.6922C141.111 46.6922 141.848 46.4077 142.417 45.8387C142.986 45.2568 143.271 44.5067 143.271 43.5885C143.271 42.6832 142.986 41.9461 142.417 41.3771C141.848 40.7951 141.111 40.5041 140.206 40.5041C139.326 40.5041 138.596 40.7951 138.014 41.3771C137.445 41.9461 137.16 42.6832 137.16 43.5885C137.16 44.4937 137.445 45.2374 138.014 45.8193C138.596 46.4013 139.326 46.6922 140.206 46.6922ZM151.853 47.7398C152.409 47.7398 152.965 47.6363 153.521 47.4294C154.077 47.2095 154.517 46.9315 154.84 46.5952L155.966 47.7786C155.526 48.2441 154.918 48.6192 154.142 48.9037C153.379 49.1882 152.635 49.3304 151.911 49.3304C150.98 49.3304 150.12 49.1041 149.331 48.6515C148.542 48.1989 147.909 47.5716 147.43 46.7698C146.965 45.968 146.732 45.0628 146.732 44.054C146.732 43.0712 146.952 42.1853 147.391 41.3965C147.844 40.5946 148.452 39.9674 149.215 39.5148C149.991 39.0622 150.838 38.8358 151.756 38.8358C152.765 38.8358 153.631 39.0751 154.355 39.5536C155.093 40.0321 155.649 40.711 156.024 41.5904C156.412 42.4698 156.606 43.5044 156.606 44.6942H148.614C148.73 45.5865 149.079 46.3172 149.661 46.8862C150.256 47.4552 150.987 47.7398 151.853 47.7398ZM151.814 40.4265C151.012 40.4265 150.314 40.6852 149.719 41.2025C149.137 41.7198 148.775 42.4116 148.633 43.2781H154.743C154.64 42.4375 154.336 41.7521 153.832 41.2219C153.327 40.6916 152.655 40.4265 151.814 40.4265ZM161.089 49.3304C160.339 49.3304 159.589 49.2011 158.839 48.9425C158.089 48.6838 157.41 48.3153 156.802 47.8368L157.694 46.5177C158.25 46.9315 158.819 47.2483 159.401 47.4682C159.983 47.6751 160.552 47.7786 161.108 47.7786C161.703 47.7786 162.175 47.6557 162.524 47.41C162.886 47.1643 163.068 46.8345 163.068 46.4207C163.068 45.9939 162.88 45.6771 162.505 45.4701C162.13 45.2503 161.542 45.0304 160.74 44.8106C159.511 44.4743 158.625 44.0993 158.082 43.6855C157.552 43.2587 157.287 42.6574 157.287 41.8814C157.287 40.9632 157.623 40.2261 158.295 39.67C158.981 39.1139 159.86 38.8358 160.934 38.8358C161.567 38.8358 162.201 38.9393 162.835 39.1462C163.481 39.3531 164.083 39.6377 164.639 39.9998L163.824 41.3577C162.815 40.711 161.852 40.3877 160.934 40.3877C160.403 40.3877 159.964 40.5041 159.615 40.7369C159.278 40.9568 159.11 41.2671 159.11 41.668C159.11 41.9267 159.188 42.1336 159.343 42.2888C159.498 42.444 159.725 42.5862 160.022 42.7155C160.332 42.8319 160.817 42.9936 161.477 43.2005C162.201 43.4074 162.789 43.6143 163.242 43.8213C163.708 44.0282 164.096 44.3256 164.406 44.7136C164.729 45.1016 164.891 45.6059 164.891 46.2267C164.891 47.1578 164.535 47.9079 163.824 48.4769C163.113 49.0459 162.201 49.3304 161.089 49.3304ZM171.377 48.6127C171.105 48.8325 170.795 49.0071 170.446 49.1365C170.097 49.2658 169.741 49.3304 169.379 49.3304C168.603 49.3304 167.969 49.0783 167.478 48.5739C166.987 48.0566 166.741 47.3971 166.741 46.5952V40.6981H165.228V39.0686H166.741V36.314H168.622V39.0686H170.989V40.6981H168.622V46.4595C168.622 46.8086 168.719 47.0996 168.913 47.3324C169.12 47.5522 169.366 47.6622 169.651 47.6622C169.858 47.6622 170.051 47.6298 170.233 47.5652C170.427 47.4876 170.575 47.3971 170.679 47.2936L171.377 48.6127ZM172.813 39.0686H174.715V49.0977H172.813V39.0686ZM173.764 37.4004C173.441 37.4004 173.163 37.284 172.93 37.0512C172.71 36.8184 172.6 36.5468 172.6 36.2364C172.6 35.9261 172.71 35.661 172.93 35.4411C173.163 35.2083 173.441 35.0919 173.764 35.0919C174.074 35.0919 174.339 35.2083 174.559 35.4411C174.792 35.661 174.908 35.9261 174.908 36.2364C174.908 36.5468 174.792 36.8184 174.559 37.0512C174.339 37.284 174.074 37.4004 173.764 37.4004ZM181.502 49.3304C180.545 49.3304 179.659 49.0977 178.845 48.6321C178.043 48.1536 177.403 47.5134 176.924 46.7116C176.459 45.8969 176.226 45.0175 176.226 44.0734C176.226 43.1294 176.459 42.2565 176.924 41.4546C177.403 40.6528 178.043 40.0192 178.845 39.5536C179.659 39.0751 180.545 38.8358 181.502 38.8358C182.446 38.8358 183.319 39.0751 184.121 39.5536C184.936 40.0192 185.576 40.6528 186.042 41.4546C186.52 42.2565 186.759 43.1294 186.759 44.0734C186.759 45.0175 186.52 45.8969 186.042 46.7116C185.576 47.5134 184.936 48.1536 184.121 48.6321C183.319 49.0977 182.446 49.3304 181.502 49.3304ZM181.502 47.6622C182.097 47.6622 182.647 47.5005 183.151 47.1772C183.668 46.8539 184.076 46.4207 184.373 45.8775C184.684 45.3214 184.839 44.7201 184.839 44.0734C184.839 43.4268 184.684 42.8319 184.373 42.2888C184.076 41.7327 183.668 41.2995 183.151 40.9891C182.647 40.6658 182.097 40.5041 181.502 40.5041C180.894 40.5041 180.332 40.6658 179.815 40.9891C179.297 41.2995 178.884 41.7327 178.573 42.2888C178.276 42.8319 178.127 43.4268 178.127 44.0734C178.127 44.7201 178.276 45.3214 178.573 45.8775C178.884 46.4207 179.297 46.8539 179.815 47.1772C180.332 47.5005 180.894 47.6622 181.502 47.6622ZM193.402 38.8358C194.126 38.8358 194.773 38.9975 195.342 39.3208C195.911 39.6441 196.35 40.1032 196.661 40.6981C196.984 41.2801 197.146 41.9525 197.146 42.7155V49.0977H195.264V43.0453C195.264 42.2952 195.051 41.6874 194.624 41.2219C194.197 40.7434 193.641 40.5041 192.956 40.5041C192.451 40.5041 191.986 40.614 191.559 40.8339C191.132 41.0408 190.796 41.3253 190.55 41.6874C190.304 42.0495 190.182 42.444 190.182 42.8707V49.0977H188.281V39.0686H190.182V40.5429C190.479 40.0256 190.919 39.6118 191.501 39.3014C192.083 38.991 192.716 38.8358 193.402 38.8358Z" fill="white"/>
<rect x="27.2793" y="69.0094" width="418.28" height="192.773" rx="26.6729" fill="url(#paint0_linear_223_10165)"/>
<path d="M49.9709 95.1791H51.9301L56.6052 103.889L61.2608 95.1791H63.2394V108.506H61.2608V99.02L56.6052 107.73L51.9301 99.02V108.506H49.9709V95.1791ZM70.2415 107.148C70.7976 107.148 71.3537 107.045 71.9098 106.838C72.4659 106.618 72.9056 106.34 73.2289 106.003L74.354 107.187C73.9143 107.652 73.3065 108.027 72.5306 108.312C71.7676 108.596 71.024 108.739 70.2997 108.739C69.3686 108.739 68.5086 108.512 67.7197 108.06C66.9309 107.607 66.2972 106.98 65.8187 106.178C65.3531 105.376 65.1203 104.471 65.1203 103.462C65.1203 102.479 65.3402 101.594 65.7799 100.805C66.2325 100.003 66.8403 99.3756 67.6033 98.923C68.3793 98.4704 69.2264 98.2441 70.1446 98.2441C71.1533 98.2441 72.0197 98.4833 72.744 98.9618C73.4811 99.4403 74.0372 100.119 74.4122 100.999C74.8002 101.878 74.9942 102.913 74.9942 104.102H67.002C67.1184 104.995 67.4676 105.725 68.0495 106.294C68.6444 106.863 69.3751 107.148 70.2415 107.148ZM70.2027 99.8347C69.4009 99.8347 68.7026 100.093 68.1077 100.611C67.5258 101.128 67.1636 101.82 67.0214 102.686H73.1319C73.0285 101.846 72.7246 101.16 72.2202 100.63C71.7158 100.1 71.0433 99.8347 70.2027 99.8347ZM79.4774 108.739C78.7273 108.739 77.9772 108.609 77.2271 108.351C76.4771 108.092 75.7981 107.723 75.1903 107.245L76.0826 105.926C76.6387 106.34 77.2077 106.657 77.7897 106.876C78.3716 107.083 78.9407 107.187 79.4968 107.187C80.0916 107.187 80.5637 107.064 80.9128 106.818C81.2749 106.572 81.456 106.243 81.456 105.829C81.456 105.402 81.2685 105.085 80.8934 104.878C80.5184 104.658 79.93 104.439 79.1282 104.219C77.8996 103.883 77.0137 103.508 76.4706 103.094C75.9404 102.667 75.6752 102.066 75.6752 101.29C75.6752 100.371 76.0115 99.6343 76.684 99.0782C77.3694 98.5221 78.2488 98.2441 79.3222 98.2441C79.9558 98.2441 80.5895 98.3475 81.2232 98.5544C81.8698 98.7613 82.4712 99.0459 83.0273 99.408L82.2125 100.766C81.2038 100.119 80.2404 99.7959 79.3222 99.7959C78.7919 99.7959 78.3522 99.9123 78.0031 100.145C77.6668 100.365 77.4987 100.675 77.4987 101.076C77.4987 101.335 77.5763 101.542 77.7315 101.697C77.8867 101.852 78.113 101.994 78.4104 102.124C78.7208 102.24 79.2058 102.402 79.8653 102.609C80.5895 102.816 81.178 103.023 81.6306 103.229C82.0962 103.436 82.4841 103.734 82.7945 104.122C83.1178 104.51 83.2795 105.014 83.2795 105.635C83.2795 106.566 82.9238 107.316 82.2125 107.885C81.5013 108.454 80.5895 108.739 79.4774 108.739ZM87.5993 108.739C86.8492 108.739 86.0991 108.609 85.349 108.351C84.599 108.092 83.92 107.723 83.3122 107.245L84.2045 105.926C84.7606 106.34 85.3296 106.657 85.9116 106.876C86.4935 107.083 87.0626 107.187 87.6187 107.187C88.2135 107.187 88.6856 107.064 89.0347 106.818C89.3969 106.572 89.5779 106.243 89.5779 105.829C89.5779 105.402 89.3904 105.085 89.0154 104.878C88.6403 104.658 88.0519 104.439 87.2501 104.219C86.0215 103.883 85.1357 103.508 84.5925 103.094C84.0623 102.667 83.7972 102.066 83.7972 101.29C83.7972 100.371 84.1334 99.6343 84.8059 99.0782C85.4913 98.5221 86.3707 98.2441 87.4441 98.2441C88.0778 98.2441 88.7114 98.3475 89.3451 98.5544C89.9917 98.7613 90.5931 99.0459 91.1492 99.408L90.3344 100.766C89.3257 100.119 88.3623 99.7959 87.4441 99.7959C86.9138 99.7959 86.4741 99.9123 86.125 100.145C85.7887 100.365 85.6206 100.675 85.6206 101.076C85.6206 101.335 85.6982 101.542 85.8534 101.697C86.0086 101.852 86.2349 101.994 86.5323 102.124C86.8427 102.24 87.3277 102.402 87.9872 102.609C88.7114 102.816 89.2999 103.023 89.7525 103.229C90.2181 103.436 90.606 103.734 90.9164 104.122C91.2397 104.51 91.4014 105.014 91.4014 105.635C91.4014 106.566 91.0457 107.316 90.3344 107.885C89.6232 108.454 88.7114 108.739 87.5993 108.739ZM97.078 98.2441C98.3971 98.2441 99.4252 98.6256 100.162 99.3886C100.9 100.152 101.268 101.167 101.268 102.434V108.506H99.3864V107.148C99.0243 107.652 98.5394 108.047 97.9315 108.331C97.3237 108.603 96.6965 108.739 96.0499 108.739C94.9765 108.739 94.0906 108.448 93.3923 107.866C92.6939 107.284 92.3448 106.508 92.3448 105.538C92.3448 104.891 92.5194 104.316 92.8685 103.811C93.2306 103.294 93.7156 102.9 94.3234 102.628C94.9442 102.344 95.6231 102.201 96.3603 102.201C97.3173 102.201 98.326 102.382 99.3864 102.745V102.434C99.3864 101.697 99.186 101.083 98.7851 100.591C98.3842 100.087 97.7246 99.8347 96.8064 99.8347C96.0176 99.8347 95.08 100.113 93.9936 100.669L93.2759 99.2528C94.6209 98.5803 95.8882 98.2441 97.078 98.2441ZM96.4379 107.226C97.1103 107.226 97.7311 107.064 98.3001 106.741C98.8691 106.404 99.2312 105.945 99.3864 105.363V104.025C98.5329 103.766 97.6212 103.637 96.6512 103.637C95.9658 103.637 95.3839 103.811 94.9054 104.161C94.4269 104.51 94.1876 104.949 94.1876 105.48C94.1876 106.01 94.3945 106.437 94.8084 106.76C95.2351 107.07 95.7783 107.226 96.4379 107.226ZM112.676 98.4768V107.439C112.676 108.292 112.456 109.049 112.017 109.709C111.59 110.381 110.988 110.905 110.212 111.28C109.449 111.655 108.577 111.842 107.594 111.842C106.779 111.842 105.997 111.72 105.246 111.474C104.509 111.228 103.895 110.905 103.404 110.504L104.16 109.068C104.522 109.418 104.981 109.689 105.537 109.883C106.106 110.077 106.701 110.174 107.322 110.174C108.395 110.174 109.236 109.928 109.844 109.437C110.452 108.946 110.756 108.267 110.756 107.4V105.945C110.355 106.527 109.85 106.98 109.243 107.303C108.635 107.614 107.962 107.769 107.225 107.769C106.346 107.769 105.557 107.568 104.858 107.167C104.173 106.754 103.63 106.185 103.229 105.46C102.841 104.736 102.647 103.915 102.647 102.997C102.647 102.078 102.841 101.257 103.229 100.533C103.63 99.8089 104.173 99.2463 104.858 98.8454C105.557 98.4445 106.346 98.2441 107.225 98.2441C107.962 98.2441 108.635 98.4057 109.243 98.729C109.863 99.0523 110.368 99.4985 110.756 100.068V98.4768H112.676ZM107.691 106.1C108.596 106.1 109.333 105.816 109.902 105.247C110.471 104.665 110.756 103.915 110.756 102.997C110.756 102.091 110.471 101.354 109.902 100.785C109.333 100.203 108.596 99.9123 107.691 99.9123C106.811 99.9123 106.081 100.203 105.499 100.785C104.93 101.354 104.645 102.091 104.645 102.997C104.645 103.902 104.93 104.646 105.499 105.228C106.081 105.809 106.811 106.1 107.691 106.1ZM119.338 107.148C119.894 107.148 120.45 107.045 121.006 106.838C121.562 106.618 122.002 106.34 122.325 106.003L123.45 107.187C123.011 107.652 122.403 108.027 121.627 108.312C120.864 108.596 120.12 108.739 119.396 108.739C118.465 108.739 117.605 108.512 116.816 108.06C116.027 107.607 115.394 106.98 114.915 106.178C114.45 105.376 114.217 104.471 114.217 103.462C114.217 102.479 114.437 101.594 114.876 100.805C115.329 100.003 115.937 99.3756 116.7 98.923C117.476 98.4704 118.323 98.2441 119.241 98.2441C120.25 98.2441 121.116 98.4833 121.84 98.9618C122.577 99.4403 123.134 100.119 123.509 100.999C123.897 101.878 124.091 102.913 124.091 104.102H116.098C116.215 104.995 116.564 105.725 117.146 106.294C117.741 106.863 118.471 107.148 119.338 107.148ZM119.299 99.8347C118.497 99.8347 117.799 100.093 117.204 100.611C116.622 101.128 116.26 101.82 116.118 102.686H122.228C122.125 101.846 121.821 101.16 121.317 100.63C120.812 100.1 120.14 99.8347 119.299 99.8347ZM140.244 95.1791H142.203V108.506H140.244V102.628H132.989V108.506H131.029V95.1791H132.989V100.805H140.244V95.1791ZM149.216 107.148C149.772 107.148 150.329 107.045 150.885 106.838C151.441 106.618 151.88 106.34 152.204 106.003L153.329 107.187C152.889 107.652 152.281 108.027 151.505 108.312C150.742 108.596 149.999 108.739 149.275 108.739C148.343 108.739 147.483 108.512 146.695 108.06C145.906 107.607 145.272 106.98 144.793 106.178C144.328 105.376 144.095 104.471 144.095 103.462C144.095 102.479 144.315 101.594 144.755 100.805C145.207 100.003 145.815 99.3756 146.578 98.923C147.354 98.4704 148.201 98.2441 149.119 98.2441C150.128 98.2441 150.995 98.4833 151.719 98.9618C152.456 99.4403 153.012 100.119 153.387 100.999C153.775 101.878 153.969 102.913 153.969 104.102H145.977C146.093 104.995 146.442 105.725 147.024 106.294C147.619 106.863 148.35 107.148 149.216 107.148ZM149.178 99.8347C148.376 99.8347 147.677 100.093 147.082 100.611C146.501 101.128 146.138 101.82 145.996 102.686H152.107C152.003 101.846 151.699 101.16 151.195 100.63C150.691 100.1 150.018 99.8347 149.178 99.8347ZM157.331 100.436C157.641 99.7636 158.126 99.2334 158.785 98.8454C159.445 98.4445 160.208 98.2441 161.074 98.2441V99.9123C160.35 99.9123 159.704 100.048 159.135 100.32C158.566 100.591 158.119 100.979 157.796 101.484C157.486 101.975 157.331 102.538 157.331 103.171V108.506H155.429V98.4768H157.331V100.436ZM166.597 107.148C167.153 107.148 167.709 107.045 168.265 106.838C168.821 106.618 169.261 106.34 169.584 106.003L170.709 107.187C170.27 107.652 169.662 108.027 168.886 108.312C168.123 108.596 167.379 108.739 166.655 108.739C165.724 108.739 164.864 108.512 164.075 108.06C163.286 107.607 162.652 106.98 162.174 106.178C161.708 105.376 161.476 104.471 161.476 103.462C161.476 102.479 161.695 101.594 162.135 100.805C162.588 100.003 163.196 99.3756 163.959 98.923C164.735 98.4704 165.582 98.2441 166.5 98.2441C167.509 98.2441 168.375 98.4833 169.099 98.9618C169.836 99.4403 170.392 100.119 170.767 100.999C171.155 101.878 171.349 102.913 171.349 104.102H163.357C163.474 104.995 163.823 105.725 164.405 106.294C165 106.863 165.73 107.148 166.597 107.148ZM166.558 99.8347C165.756 99.8347 165.058 100.093 164.463 100.611C163.881 101.128 163.519 101.82 163.377 102.686H169.487C169.384 101.846 169.08 101.16 168.575 100.63C168.071 100.1 167.399 99.8347 166.558 99.8347Z" fill="white"/>
<g clip-path="url(#clip0_223_10165)">
<path d="M269.391 285.114L215.002 312.069C212.859 313.136 211.098 314.838 209.957 316.942C208.817 319.046 208.354 321.451 208.631 323.829C208.907 326.206 209.91 328.44 211.503 330.227C213.096 332.013 215.201 333.265 217.531 333.811L239.758 338.939C240.287 339.074 240.784 339.313 241.22 339.642C241.655 339.971 242.021 340.384 242.295 340.856L253.301 360.836C254.239 362.533 255.586 363.968 257.22 365.012C258.854 366.056 260.723 366.675 262.656 366.813C264.59 366.951 266.528 366.603 268.293 365.801C270.058 365 271.596 363.77 272.765 362.223C273.845 360.764 274.585 359.081 274.93 357.298L286 297.613C286.387 295.493 286.179 293.306 285.396 291.297C284.614 289.288 283.289 287.536 281.568 286.237C279.848 284.937 277.801 284.141 275.655 283.937C273.509 283.734 271.348 284.13 269.414 285.083L269.391 285.114ZM278.357 296.213L267.288 355.898C267.131 356.673 266.741 357.382 266.17 357.929C265.599 358.477 264.875 358.837 264.094 358.96C263.313 359.084 262.512 358.966 261.8 358.622C261.088 358.278 260.498 357.725 260.109 357.036L249.08 337.087C248.93 336.824 248.766 336.569 248.586 336.325L264.694 315.005C265.314 314.185 265.582 313.151 265.44 312.133C265.299 311.114 264.758 310.193 263.937 309.573C263.117 308.953 262.083 308.685 261.064 308.827C260.046 308.968 259.125 309.509 258.505 310.33L242.398 331.65C242.114 331.544 241.824 331.455 241.53 331.383L219.326 326.224C218.557 326.038 217.864 325.622 217.339 325.031C216.813 324.44 216.481 323.702 216.387 322.917C216.292 322.132 216.44 321.336 216.811 320.638C217.181 319.939 217.757 319.37 218.46 319.008L272.849 292.052C273.491 291.742 274.207 291.614 274.918 291.684C275.628 291.754 276.305 292.019 276.875 292.449C277.444 292.88 277.884 293.459 278.145 294.123C278.407 294.787 278.48 295.51 278.357 296.213Z" fill="url(#paint1_linear_223_10165)"/>
</g>
<defs>
<linearGradient id="paint0_linear_223_10165" x1="8.38111" y1="69.0093" x2="595.786" y2="205.406" gradientUnits="userSpaceOnUse">
<stop stop-color="#38ACE2"/>
<stop offset="0.40625" stop-color="#4191D6" stop-opacity="0.869511"/>
<stop offset="0.546875" stop-color="#4290D5" stop-opacity="0.86218"/>
<stop offset="1" stop-color="#4F6AC4" stop-opacity="0.678976"/>
</linearGradient>
<linearGradient id="paint1_linear_223_10165" x1="204.519" y1="323.923" x2="271.834" y2="252.684" gradientUnits="userSpaceOnUse">
<stop offset="0.0582588" stop-color="#96DCFF" stop-opacity="0.986325"/>
<stop offset="0.532014" stop-color="#38ACE2"/>
<stop offset="0.845984" stop-color="#4191D6" stop-opacity="0.869511"/>
</linearGradient>
<clipPath id="clip0_223_10165">
<rect width="93.0753" height="93.0753" fill="white" transform="translate(193 326.263) rotate(-52.9283)"/>
</clipPath>
</defs>
</svg>
