<svg width="100" height="100" viewBox="0 0 100 100" fill="none" xmlns="http://www.w3.org/2000/svg">
<rect width="100" height="100" fill="#B7D3F3"/>
<path d="M48.5442 30H48.5834C48.5836 31.3507 48.5842 32.6974 48.5842 34.0434C48.5842 35.1149 48.5839 36.186 48.5826 37.2582C44.4728 37.7101 40.6715 40.2224 38.6467 44.1278C39.2802 43.9262 39.9154 43.8316 40.5357 43.8316C43.8241 43.8316 46.6948 46.4929 46.6948 49.9995C46.6948 53.5401 43.7936 56.1676 40.5277 56.1676C39.9081 56.1676 39.2753 56.073 38.6467 55.8721C40.5808 59.6259 44.3188 62.2689 48.5826 62.7418C48.5859 65.1614 48.5834 67.5795 48.5838 70H48.5458C38.1066 69.2036 30 60.5195 30 49.9991C30 39.4319 38.1717 30.7783 48.5442 30" fill="white" fill-opacity="0.5"/>
<path d="M51.5847 30C51.7602 30.0355 56.3154 30.1072 61.0104 33.1629C66.6165 36.7918 70.168 43.0544 70.168 50.0017C70.168 60.3132 62.3119 69.1505 51.6227 70H51.5851C51.5847 67.5751 51.583 65.1609 51.5859 62.7418C55.7915 62.2752 59.5565 59.6823 61.5218 55.8721C60.8943 56.0741 60.2616 56.1692 59.6416 56.1692C56.3846 56.1692 53.4737 53.5458 53.4737 50.0013C53.4737 46.4875 56.349 43.8328 59.6357 43.8328C60.2553 43.8328 60.8895 43.9271 61.5218 44.1278C59.472 40.1807 55.6487 37.7028 51.5859 37.2582C51.583 34.839 51.5851 32.4191 51.5847 30Z" fill="white" fill-opacity="0.5"/>
</svg>
